<?xml version="1.0" encoding="utf-8"?>
<!-- Generator: Adobe Illustrator 27.5.0, SVG Export Plug-In . SVG Version: 6.00 Build 0)  -->
<svg version="1.1" xmlns="http://www.w3.org/2000/svg" xmlns:xlink="http://www.w3.org/1999/xlink" x="0px" y="0px"
	 viewBox="0 0 3710 3710" style="enable-background:new 0 0 3710 3710;" xml:space="preserve">
<g id="Background">
	<g>
		<g>
			<rect style="fill:#FFFFFF;" width="3710" height="3710"/>
		</g>
	</g>
</g>
<g id="Illustration">
	<g>
		<path style="fill:#F4F7FA;" d="M2298.6,543.315c-201.335-42.832-410.66-63.361-615.33-50.275
			c-181.402,11.599-387.026,43.255-533.002,156.648c-69.567,54.039-152.529,151.139-175.284,236.801
			c-0.003,0.01-119.779,450.895-359.327,547.515c-239.551,96.62-405.906,1745.606,1410.69,1584.572
			c0,0,1066.97-42.197,1131.214-1257.651c15.519-293.616,6.848-616.401-179.07-861.913
			c-142.47-188.137-342.083-271.789-571.462-330.322C2371.198,559.545,2335.03,551.065,2298.6,543.315z"/>
		<g>
			<g>
				<g>
					<defs>
						<path id="SVGID_1_" d="M1401.218,2167.114c36.604-111.546,73.86-281.836,30.246-470.897
							c-50.082-217.094-161.023-260.528-260.632-492.586c-142.189-331.255,18.734-571.208-128.464-672.452
							c-71.783-49.372-184.661-49.412-254.254,0.156c-198.553,141.421-144.121,757.415,170.903,997.792
							c142.476,108.716,266.803,95.819,373.719,236.499C1427.21,1889.935,1419.802,2053.929,1401.218,2167.114z"/>
					</defs>
					
						<linearGradient id="SVGID_00000175286992961808984770000007261256340285109690_" gradientUnits="userSpaceOnUse" x1="790.4202" y1="507.8264" x2="1265.1492" y2="2018.3265">
						<stop  offset="0" style="stop-color:#FF9085"/>
						<stop  offset="1" style="stop-color:#FB6FBB"/>
					</linearGradient>
					
						<use xlink:href="#SVGID_1_"  style="overflow:visible;fill:url(#SVGID_00000175286992961808984770000007261256340285109690_);"/>
					<clipPath id="SVGID_00000128484156342860529390000006136002158370737557_">
						<use xlink:href="#SVGID_1_"  style="overflow:visible;"/>
					</clipPath>
					<g style="clip-path:url(#SVGID_00000128484156342860529390000006136002158370737557_);">
						<path style="fill:#FFFFFF;" d="M1423.598,1886.444c-11.938-46.908-27.984-93.006-47.701-137.016
							c-45.309-101.13-95.316-156.759-158.625-227.186c-41.319-45.967-88.152-98.067-142.274-172.769
							c-101.264-139.758-132.69-188.857-160.844-268.001c-55.716-156.601-47.163-297.02-37.103-366.786
							c14.272-98.958,47.476-193.131,98.691-279.908l3.084,1.82c-50.979,86.371-84.03,180.106-98.232,278.599
							c-10.011,69.437-18.526,209.2,36.93,365.077c28.005,78.719,59.348,127.668,160.372,267.101
							c54.014,74.549,100.778,126.573,142.041,172.474c63.518,70.661,113.688,126.474,159.226,228.116
							c19.8,44.196,35.916,90.49,47.902,137.596L1423.598,1886.444z"/>
						<path style="fill:#FFFFFF;" d="M886.964,970.852l-2.591-1.403c-0.587-0.32-59.39-32.643-111.64-98.42
							c-48.243-60.733-100.66-163.235-76.425-306.651l3.528,0.597c-24.005,142.051,27.867,243.569,75.613,303.717
							c45.6,57.45,96.211,89.159,108.059,96.135c3.275-114.565,76.721-188.806,138.062-231.024
							c66.918-46.054,134.256-64.942,134.929-65.128l0.952,3.448c-0.667,0.184-67.508,18.946-133.936,64.685
							c-61.15,42.105-134.468,116.38-136.499,231.099L886.964,970.852z"/>
						<path style="fill:#FFFFFF;" d="M903.716,1339.301c-59.473,0-129.356-14.614-193.895-64.848l2.195-2.823
							c144.881,112.765,317.06,44.003,334.165,36.723c-29.255-113.122-3.379-196.571,23.561-246.734
							c29.335-54.627,66.3-82.71,66.668-82.987l2.146,2.861c-0.365,0.274-36.794,27.981-65.744,81.971
							c-26.703,49.793-52.333,132.799-22.786,245.463l0.382,1.453l-1.365,0.625
							C1047.975,1311.495,985.749,1339.301,903.716,1339.301z"/>
						<path style="fill:#FFFFFF;" d="M1036.388,1555.074c-44.604,0-97.996-8.099-160.115-30.794l1.229-3.361
							c203.385,74.307,312.157-8.94,323.387-18.237c-49.531-115.871,20.227-303.259,20.939-305.144l3.348,1.264
							c-0.712,1.88-70.439,189.233-20.481,303.668l0.514,1.174l-0.948,0.863C1203.483,1505.217,1147.01,1555.074,1036.388,1555.074z
							"/>
					</g>
				</g>
			</g>
			<g>
				<g>
					<defs>
						<path id="SVGID_00000083788171666842512270000008844287168037852561_" d="M1464.931,2032.578
							c11.61-70.226,18.284-179.901-38.879-277.983c-99.725-171.113-281.496-114.352-455.484-297.676
							c-140.329-147.857-96.105-262.776-251.601-361.039c-26.027-16.448-163.551-106.96-265.82-52.443
							c-57.63,30.72-78.51,93.786-82.43,105.626c-59.242,178.936,123.018,459.084,360.576,587.216
							c136.487,73.616,180.522,49.558,420.707,135.416C1293.137,1922.145,1399.105,1987.11,1464.931,2032.578z"/>
					</defs>
					
						<linearGradient id="SVGID_00000066493087436928268790000012847746234325081232_" gradientUnits="userSpaceOnUse" x1="1659.6903" y1="4855.6792" x2="1555.1753" y2="4394.5825">
						<stop  offset="0" style="stop-color:#FF9085"/>
						<stop  offset="1" style="stop-color:#FB6FBB"/>
					</linearGradient>
					
						<use xlink:href="#SVGID_00000083788171666842512270000008844287168037852561_"  style="overflow:visible;fill:url(#SVGID_00000066493087436928268790000012847746234325081232_);"/>
					<clipPath id="SVGID_00000079465107700678526670000014760506355072248746_">
						<use xlink:href="#SVGID_00000083788171666842512270000008844287168037852561_"  style="overflow:visible;"/>
					</clipPath>
					<g style="clip-path:url(#SVGID_00000079465107700678526670000014760506355072248746_);">
						<path style="fill:#FFFFFF;" d="M1484.96,2117.147c-34.759-166.952-100.542-279.04-195.52-333.151
							c-46.337-26.396-83.363-30.587-122.561-35.023c-42.833-4.848-87.124-9.86-145.715-45.29
							c-57.014-34.478-77.401-67.586-103.208-109.504c-22.929-37.237-51.465-83.58-115.484-145.282
							c-56.125-54.094-97.017-79.424-133.096-101.773c-39.492-24.464-70.682-43.786-106.9-91.242
							c-59.001-77.316-89.833-176.373-91.642-294.423l3.577-0.056c1.795,117.268,32.384,215.614,90.913,292.308
							c35.811,46.932,66.758,66.102,105.938,90.371c36.228,22.443,77.294,47.88,133.69,102.238
							c64.348,62.018,93.017,108.575,116.05,145.984c25.557,41.505,45.743,74.288,102.017,108.316
							c57.917,35.025,101.813,39.994,144.263,44.798c39.572,4.478,76.953,8.709,123.929,35.469
							c95.909,54.641,162.275,167.529,197.25,335.53L1484.96,2117.147z"/>
						<path style="fill:#FFFFFF;" d="M671.457,1357.432c-122.043,0-213.147-46.776-268.834-86.907
							c-62.737-45.21-95.329-92.022-95.649-92.491l2.945-2.028c0.319,0.464,32.634,46.85,94.909,91.699
							c57.077,41.105,151.66,89.261,278.825,85.992c-7.65-24.585-71.335-239.916,11.049-332.36l2.674,2.379
							c-85.648,96.102-10.376,328.804-9.605,331.144l0.75,2.275l-2.393,0.073C681.19,1357.358,676.297,1357.432,671.457,1357.432z"
							/>
						<path style="fill:#FFFFFF;" d="M662.088,1555.942c-78.061,0-177.62-16.067-277.516-75.953l1.84-3.07
							c124.217,74.469,247.941,80.721,329.838,72.852c81.322-7.811,138.652-30.691,148.212-34.704
							c-33.086-122.06-3.608-294.178-3.302-295.911l3.521,0.616c-0.302,1.731-29.88,174.488,3.643,295.85l0.406,1.483l-1.403,0.627
							c-0.601,0.269-61.237,26.981-150.6,35.586C700.111,1554.92,681.78,1555.942,662.088,1555.942z"/>
						<path style="fill:#FFFFFF;" d="M767.942,1839.363c-5.952,0-11.956-0.063-18.039-0.194l0.076-3.577
							c124.824,2.695,220.907-23.248,279.529-45.482c56.032-21.253,89.444-43.253,96.781-48.319
							c-91.631-113.85-55.726-299.687-55.351-301.559l3.507,0.701c-0.372,1.865-36.242,187.692,55.823,300.083l1.195,1.458
							l-1.518,1.116C1128.609,1744.573,996.989,1839.363,767.942,1839.363z"/>
					</g>
				</g>
			</g>
			<g>
				
					<linearGradient id="SVGID_00000119804438597144074000000014543812645075956373_" gradientUnits="userSpaceOnUse" x1="-2583.021" y1="1614.0505" x2="-3610.3689" y2="2457.9448" gradientTransform="matrix(-0.9456 0.3251 0.3251 0.9456 -2368.6013 1020.5929)">
					<stop  offset="0" style="stop-color:#FF9085"/>
					<stop  offset="1" style="stop-color:#FB6FBB"/>
				</linearGradient>
				<path style="fill:url(#SVGID_00000119804438597144074000000014543812645075956373_);" d="M1467.379,1972.925
					c-39.055-28.069-102.981-68.695-188.964-99.177c-152.936-54.218-223.023-22.231-287.766-86.887
					c-67.017-66.926-23.609-132.845-103.845-207.582c-6.747-6.283-92.898-84.457-170.837-55.347
					c-54.524,20.365-75.753,82.3-85.715,111.36c-38.66,112.786-16.181,284.642,104.144,369.409
					c114.078,80.367,258.509,42.065,304.364,29.58c80.446-21.904,99.511-53.259,181.293-73.087
					C1319.508,1937.08,1408.901,1954.943,1467.379,1972.925z"/>
			</g>
		</g>
		<g>
			
				<linearGradient id="SVGID_00000062899267111952021700000004481549072335413151_" gradientUnits="userSpaceOnUse" x1="1642.6945" y1="3058.4019" x2="1444.5638" y2="3141.6169">
				<stop  offset="0" style="stop-color:#40447E"/>
				<stop  offset="0.9964" style="stop-color:#3C3B6B"/>
			</linearGradient>
			<path style="fill:url(#SVGID_00000062899267111952021700000004481549072335413151_);" d="M3271.71,2949.776l-2820.2-24.788
				v73.344c0,19.907,12.301,36.834,28.96,39.85l797.468,144.426c9.464,1.714,19.062,2.169,28.612,1.356l1934.513-164.669
				c17.271-1.47,30.647-18.45,30.647-38.902V2949.776z"/>
			<g>
				
					<linearGradient id="SVGID_00000013877134924711307590000018334042437302848684_" gradientUnits="userSpaceOnUse" x1="1320.324" y1="2177.5938" x2="1114.8953" y2="2263.8738">
					<stop  offset="0" style="stop-color:#40447E"/>
					<stop  offset="0.9964" style="stop-color:#3C3B6B"/>
				</linearGradient>
				<path style="fill:url(#SVGID_00000013877134924711307590000018334042437302848684_);" d="M2248.271,2830.883L480.674,2965.056
					c-31.63,2.4-57.347-23.111-57.347-56.989V1550.79c0-33.878,25.717-61.342,57.347-61.342h1767.597
					c26.058,0,47.127,24.826,47.127,55.452v1226.954C2295.398,2802.478,2274.329,2828.905,2248.271,2830.883z"/>
				
					<linearGradient id="SVGID_00000157305379879958998950000005889387743886299776_" gradientUnits="userSpaceOnUse" x1="451.5104" y1="2227.3303" x2="2323.5823" y2="2227.3303">
					<stop  offset="0" style="stop-color:#40447E"/>
					<stop  offset="0.9964" style="stop-color:#3C3B6B"/>
				</linearGradient>
				<path style="fill:url(#SVGID_00000157305379879958998950000005889387743886299776_);" d="M2276.455,2830.883L508.858,2965.056
					c-31.631,2.4-57.348-23.111-57.348-56.989V1550.79c0-33.878,25.717-61.342,57.348-61.342h1767.597
					c26.059,0,47.127,24.826,47.127,55.452v1226.954C2323.582,2802.478,2302.514,2828.905,2276.455,2830.883z"/>
				
					<linearGradient id="SVGID_00000136387317515287583660000017420688138950930589_" gradientUnits="userSpaceOnUse" x1="571.761" y1="2830.8525" x2="2472.1343" y2="1283.3527">
					<stop  offset="0" style="stop-color:#AA80F9"/>
					<stop  offset="0.9964" style="stop-color:#6165D7"/>
				</linearGradient>
				<path style="fill:url(#SVGID_00000136387317515287583660000017420688138950930589_);" d="M2221.389,2744.381L575.058,2860.928
					c-25.74,1.822-46.657-19.117-46.657-46.774V1625.855c0-27.656,20.917-50.17,46.657-50.285l1646.332-7.318
					c21.497-0.096,38.884,20.247,38.884,45.438v1082.327C2260.273,2721.207,2242.886,2742.859,2221.389,2744.381z"/>
				<path style="fill:#FFFFFF;" d="M1455.083,1526.573c0,12.611-9.098,22.865-20.332,22.901
					c-11.248,0.037-20.377-10.18-20.377-22.82s9.128-22.893,20.377-22.902C1445.985,1503.744,1455.083,1513.961,1455.083,1526.573z"
					/>
				<path style="opacity:0.48;fill:#FFFFFF;" d="M1850.58,2458.629c-136.266-78.752-243.411,21.036-346.814-77.42
					c-62.69-59.691-31.911-104.202-109.05-193.403c-85.436-98.796-141.06-65.586-226.922-154.504
					c-108.567-112.431-54.268-199.904-147.785-280.626c-113.449-97.927-235.798-7.289-343.794-101.205
					c-46.579-40.506-72.136-99.395-85.482-162.023H485.064c-18.517,0-33.554,16.12-33.554,36.005v1406.936
					c0,19.885,15.037,34.859,33.554,33.448l1801.471-137.35c8.841-0.674,16.68-6.218,21.711-14.256
					c-131.873-5.162-212.889-52.647-264.677-101.735C1942.259,2616.466,1959.831,2521.766,1850.58,2458.629z"/>
			</g>
			
				<linearGradient id="SVGID_00000012468004264125780520000006721357403942116287_" gradientUnits="userSpaceOnUse" x1="451.5104" y1="2970.925" x2="3271.7104" y2="2970.925">
				<stop  offset="0" style="stop-color:#40447E"/>
				<stop  offset="0.9964" style="stop-color:#3C3B6B"/>
			</linearGradient>
			<path style="fill:url(#SVGID_00000012468004264125780520000006721357403942116287_);" d="M2346.906,2824.798L451.51,2966.028
				l826.428,149.67c9.464,1.713,19.062,2.169,28.612,1.356l1965.16-167.278l-894.653-124.018
				C2367.052,2824.371,2356.961,2824.049,2346.906,2824.798z"/>
			
				<linearGradient id="SVGID_00000136398173762703667210000000121239477630264194_" gradientUnits="userSpaceOnUse" x1="728.0786" y1="2947.6055" x2="2794.4211" y2="2947.6055">
				<stop  offset="0" style="stop-color:#40447E"/>
				<stop  offset="0.9964" style="stop-color:#3C3B6B"/>
			</linearGradient>
			<polygon style="opacity:0.3;fill:url(#SVGID_00000136398173762703667210000000121239477630264194_);" points="728.079,2969.579 
				2306.052,2850.25 2794.421,2917.402 1230.041,3044.961 			"/>
			<g style="opacity:0.75;">
				<polygon style="fill:#FFFFFF;" points="864.292,1668.879 683.003,1669.512 683.003,1610.844 864.292,1610.844 				"/>
				<polygon style="fill:#FFFFFF;" points="1814.163,1665.563 979.444,1668.477 979.444,1610.844 1814.163,1610.844 				"/>
				<polygon style="fill:#FFFFFF;" points="1154.426,1765.269 979.444,1766.923 979.444,1709.29 1154.426,1708.247 				"/>
				<polygon style="fill:#FFFFFF;" points="2072.344,1756.59 1265.608,1764.218 1265.608,1707.584 2072.344,1702.773 				"/>
				<polygon style="fill:#FFFFFF;" points="1154.426,1862.672 979.444,1865.37 979.444,1807.737 1154.426,1805.65 				"/>
				<polygon style="fill:#FFFFFF;" points="2072.344,1848.518 1265.608,1860.957 1265.608,1804.323 2072.344,1794.701 				"/>
				<polygon style="fill:#FFFFFF;" points="864.292,1966.278 683.003,1970.154 683.003,1911.486 864.292,1908.243 				"/>
				<polygon style="fill:#FFFFFF;" points="1814.163,1945.967 979.444,1963.816 979.444,1906.183 1814.163,1891.249 				"/>
				<polygon style="fill:#FFFFFF;" points="1154.426,2057.477 979.444,2062.262 979.444,2004.629 1154.426,2000.455 				"/>
				<polygon style="fill:#FFFFFF;" points="2072.344,2032.375 1265.608,2054.436 1265.608,1997.802 2072.344,1978.558 				"/>
				<polygon style="fill:#FFFFFF;" points="1154.426,2154.879 979.444,2160.708 979.444,2103.075 1154.426,2097.857 				"/>
				<polygon style="fill:#FFFFFF;" points="2072.344,2124.303 1265.608,2151.176 1265.608,2094.542 2072.344,2070.486 				"/>
				<polygon style="fill:#FFFFFF;" points="1154.426,2252.282 979.444,2259.154 979.444,2201.521 1154.426,2195.26 				"/>
				<polygon style="fill:#FFFFFF;" points="2072.344,2216.231 1265.608,2247.915 1265.608,2191.281 2072.344,2162.414 				"/>
				<polygon style="fill:#FFFFFF;" points="1437.226,2336.891 1268.283,2344.534 1268.283,2287.909 1437.226,2280.856 				"/>
				<polygon style="fill:#FFFFFF;" points="2195.534,2302.587 1544.603,2332.034 1544.603,2276.374 2195.534,2249.2 				"/>
				<polygon style="fill:#FFFFFF;" points="864.292,2461.942 683.003,2471.224 683.003,2412.557 864.292,2403.908 				"/>
				<polygon style="fill:#FFFFFF;" points="1814.163,2413.307 979.444,2456.046 979.444,2398.414 1814.163,2358.589 				"/>
				<polygon style="fill:#FFFFFF;" points="1154.426,2544.49 979.444,2554.492 979.444,2496.86 1154.426,2487.468 				"/>
				<polygon style="fill:#FFFFFF;" points="2072.344,2492.016 1265.608,2538.134 1265.608,2481.5 2072.344,2438.199 				"/>
				<polygon style="fill:#FFFFFF;" points="1154.426,2641.892 979.444,2652.938 979.444,2595.306 1154.426,2584.87 				"/>
				<polygon style="fill:#FFFFFF;" points="2072.344,2583.945 1265.608,2634.873 1265.608,2578.24 2072.344,2530.127 				"/>
				<polygon style="fill:#FFFFFF;" points="864.292,2759.341 683.003,2771.867 683.003,2713.199 864.292,2701.306 				"/>
				<polygon style="fill:#FFFFFF;" points="1814.163,2693.711 979.444,2751.385 979.444,2693.752 1814.163,2638.993 				"/>
			</g>
			<g>
				
					<linearGradient id="SVGID_00000066500132543108462500000003052276963404858299_" gradientUnits="userSpaceOnUse" x1="2244.8403" y1="426.7232" x2="572.559" y2="3771.2791">
					<stop  offset="0.0036" style="stop-color:#E38DDD"/>
					<stop  offset="1" style="stop-color:#9571F6"/>
				</linearGradient>
				<path style="fill:url(#SVGID_00000066500132543108462500000003052276963404858299_);" d="M2447.094,818.857L904.051,768.151
					c-51.743-1.7-93.866,39.118-93.866,91.176V2363.25c0,52.059,42.123,92.462,93.866,90.253l1543.044-65.889
					c44.631-1.906,80.671-42.41,80.671-90.477V908.541C2527.766,860.474,2491.725,820.323,2447.094,818.857z"/>
				<path style="opacity:0.74;fill:#FFFFFF;" d="M904.051,2423.531c-35.196,1.455-63.809-26.05-63.809-61.438V860.188
					c0-35.389,28.613-63.175,63.808-62.066l1543.044,48.633c30.402,0.958,54.982,28.29,54.982,61.049v1390.321
					c0,32.76-24.58,60.333-54.981,61.59L904.051,2423.531z"/>
				
					<linearGradient id="SVGID_00000143576630568711451670000006225527425158336915_" gradientUnits="userSpaceOnUse" x1="1521.5746" y1="322.2727" x2="1812.1394" y2="1484.5354">
					<stop  offset="0.0036" style="stop-color:#E38DDD"/>
					<stop  offset="1" style="stop-color:#9571F6"/>
				</linearGradient>
				<path style="fill:url(#SVGID_00000143576630568711451670000006225527425158336915_);" d="M2447.094,818.857L904.051,768.151
					c-51.743-1.7-93.867,39.118-93.867,91.176v67.617l1717.583,44.028V908.54C2527.767,860.474,2491.727,820.323,2447.094,818.857z"
					/>
				<path style="fill:#FFFFFF;" d="M977.079,855.045c0,16.911-13.615,30.244-30.434,29.778
					c-16.844-0.466-30.517-14.592-30.517-31.549c0-16.958,13.673-30.288,30.517-29.776
					C963.464,824.01,977.079,838.134,977.079,855.045z"/>
				<path style="fill:#FFFFFF;" d="M1083.313,858.132c0,16.83-13.485,30.101-30.143,29.64
					c-16.683-0.462-30.226-14.518-30.226-31.394c0-16.876,13.543-30.145,30.226-29.637
					C1069.827,827.247,1083.313,841.302,1083.313,858.132z"/>
				<path style="fill:#FFFFFF;" d="M1188.536,861.19c0,16.75-13.358,29.959-29.857,29.503c-16.525-0.457-29.938-14.444-29.938-31.24
					c0-16.796,13.414-30.003,29.938-29.5C1175.178,830.454,1188.536,844.44,1188.536,861.19z"/>
				<g>
					<polygon style="fill:#FFFFFF;" points="1734.623,1115.118 919.599,1100.469 919.599,1148.39 1734.623,1161.287 					"/>
					<polygon style="fill:#FFFFFF;" points="2347.378,1126.132 2347.378,1170.984 2433.607,1172.348 2433.607,1127.682 					"/>
				</g>
				<g>
					<polygon style="fill:#FFFFFF;" points="1091.905,1265.611 919.599,1263.776 919.599,1214.36 1091.905,1216.577 					"/>
					<polygon style="fill:#FFFFFF;" points="2012.415,1275.412 1201.906,1266.782 1201.906,1217.992 2012.415,1228.419 					"/>
					<polygon style="fill:#FFFFFF;" points="1369.892,1351.277 1201.906,1350.124 1201.906,1301.334 1369.892,1302.858 					"/>
					<polygon style="fill:#FFFFFF;" points="2267.878,1357.437 1477.153,1352.012 1477.153,1303.832 2267.878,1311.01 					"/>
					<polygon style="fill:#FFFFFF;" points="1369.892,1433.982 1201.906,1433.466 1201.906,1384.676 1369.892,1385.564 					"/>
					<polygon style="fill:#FFFFFF;" points="2267.878,1436.742 1477.153,1434.312 1477.153,1386.132 2267.878,1390.315 					"/>
					<polygon style="fill:#FFFFFF;" points="1091.905,1516.887 919.599,1517.01 919.599,1467.594 1091.905,1467.852 					"/>
					<polygon style="fill:#FFFFFF;" points="2012.415,1516.23 1201.906,1516.808 1201.906,1468.018 2012.415,1469.236 					"/>
					<polygon style="fill:#FFFFFF;" points="1369.892,1599.394 1201.906,1600.15 1201.906,1551.36 1369.892,1550.976 					"/>
					<polygon style="fill:#FFFFFF;" points="2267.878,1595.352 1477.153,1598.911 1477.153,1550.731 2267.878,1548.925 					"/>
					<polygon style="fill:#FFFFFF;" points="1369.892,1682.1 1201.906,1683.492 1201.906,1634.702 1369.892,1633.682 					"/>
					<polygon style="fill:#FFFFFF;" points="2267.878,1674.657 1477.153,1681.211 1477.153,1633.031 2267.878,1628.23 					"/>
					<polygon style="fill:#FFFFFF;" points="1369.892,1764.806 1201.906,1766.834 1201.906,1718.044 1369.892,1716.388 					"/>
					<polygon style="fill:#FFFFFF;" points="2267.878,1753.962 1477.153,1763.511 1477.153,1715.33 2267.878,1707.535 					"/>
					<polygon style="fill:#FFFFFF;" points="1643.525,1843.171 1479.739,1845.769 1479.739,1797.595 1643.525,1795.359 					"/>
					<polygon style="fill:#FFFFFF;" points="2390.582,1831.321 1748.121,1841.512 1748.121,1793.933 2390.582,1785.166 					"/>
					<polygon style="fill:#FFFFFF;" points="1091.905,1935.679 919.599,1939.065 919.599,1889.649 1091.905,1886.645 					"/>
					<polygon style="fill:#FFFFFF;" points="2012.415,1917.592 1201.906,1933.518 1201.906,1884.728 2012.415,1870.598 					"/>
					<polygon style="fill:#FFFFFF;" points="1369.892,2012.923 1201.906,2016.86 1201.906,1968.07 1369.892,1964.505 					"/>
					<polygon style="fill:#FFFFFF;" points="2267.878,1991.877 1477.153,2010.409 1477.153,1962.229 2267.878,1945.45 					"/>
					<polygon style="fill:#FFFFFF;" points="1369.892,2095.629 1201.906,2100.202 1201.906,2051.412 1369.892,2047.211 					"/>
					<polygon style="fill:#FFFFFF;" points="2267.878,2071.182 1477.153,2092.709 1477.153,2044.529 2267.878,2024.755 					"/>
					<polygon style="fill:#FFFFFF;" points="1091.905,2186.956 919.599,2192.299 919.599,2142.883 1091.905,2137.921 					"/>
					<polygon style="fill:#FFFFFF;" points="2012.415,2158.409 1201.906,2183.544 1201.906,2134.754 2012.415,2111.416 					"/>
					<polygon style="fill:#FFFFFF;" points="1369.892,2261.041 1201.906,2266.886 1201.906,2218.096 1369.892,2212.623 					"/>
					<polygon style="fill:#FFFFFF;" points="2267.878,2229.792 1477.153,2257.308 1477.153,2209.128 2267.878,2183.365 					"/>
				</g>
				<g style="opacity:0.5;">
					<path style="fill:#FFFFFF;" d="M1847.303,1397.01c-180.225-262.247-492.174-178.809-689.513-468.562
						c-35.59-52.256-59.738-105.427-76.301-154.466l-177.438-5.831c-51.743-1.7-93.866,39.118-93.866,91.177v1503.923
						c0,52.059,42.123,92.462,93.866,90.253l1486.531-63.476c-34.054-49.113-330.655-231.032-407.275-510.343
						C1913.237,1624.25,1956.038,1555.23,1847.303,1397.01z"/>
				</g>
			</g>
		</g>
		<g>
			
				<linearGradient id="SVGID_00000174581397956827265460000008393742664341798027_" gradientUnits="userSpaceOnUse" x1="3284.6536" y1="3010.5659" x2="3307.0342" y2="3295.4084" gradientTransform="matrix(1 -0.0024 0.0024 1 -794.8005 3.3687)">
				<stop  offset="0" style="stop-color:#311944"/>
				<stop  offset="1" style="stop-color:#A03976"/>
			</linearGradient>
			<path style="fill:url(#SVGID_00000174581397956827265460000008393742664341798027_);" d="M2541.067,3148.005
				c0,0-89.99,41.161-91.446,47.701c-1.456,6.54,57.93-2.33,82.185-1.446c24.254,0.885,44.188-6.332,41.969-16.598
				c-2.222-10.267-10.773-36.084-10.773-36.084L2541.067,3148.005z"/>
			
				<linearGradient id="SVGID_00000127740990566499549380000001504296158762283966_" gradientUnits="userSpaceOnUse" x1="3342.4302" y1="3169.1475" x2="3338.3613" y2="2874.1436" gradientTransform="matrix(1 -0.0024 0.0024 1 -794.8005 3.3687)">
				<stop  offset="0" style="stop-color:#FFC444"/>
				<stop  offset="0.9964" style="stop-color:#F36F56"/>
			</linearGradient>
			<path style="fill:url(#SVGID_00000127740990566499549380000001504296158762283966_);" d="M2537.691,3114.784l5.577,40.548
				c0,0,14.274,5.042,23.841-0.983l3.981-44.496L2537.691,3114.784z"/>
			
				<linearGradient id="SVGID_00000124140434652463255230000016697228071977321138_" gradientUnits="userSpaceOnUse" x1="3707.5854" y1="2977.3425" x2="3729.9651" y2="3262.1729" gradientTransform="matrix(1 -0.0024 0.0024 1 -794.8005 3.3687)">
				<stop  offset="0" style="stop-color:#311944"/>
				<stop  offset="1" style="stop-color:#A03976"/>
			</linearGradient>
			<path style="fill:url(#SVGID_00000124140434652463255230000016697228071977321138_);" d="M2961.955,3114.738l10.519,16.796
				c2.942,4.698,3.829,10.359,2.438,15.724c-3.631,13.998-10.885,41.277-14.059,48.393c-4.322,9.694-62.608,15.585-62.608,15.585
				s-5.216-7.303,6.867-16.169c12.082-8.865,19.859-10.273,24.101-23.324c4.239-13.048,7.001-49.938,7.001-49.938L2961.955,3114.738
				z"/>
			
				<linearGradient id="SVGID_00000169560024715037223550000017150232830381142713_" gradientUnits="userSpaceOnUse" x1="3730.0278" y1="3163.8013" x2="3725.9587" y2="2868.7886" gradientTransform="matrix(1 -0.0024 0.0024 1 -794.8005 3.3687)">
				<stop  offset="0" style="stop-color:#FFC444"/>
				<stop  offset="0.9964" style="stop-color:#F36F56"/>
			</linearGradient>
			<path style="fill:url(#SVGID_00000169560024715037223550000017150232830381142713_);" d="M2918.236,3072.092
				c3.836,3.043,22.696,59.83,22.696,59.83s6.08,7.736,17.566-3.729c11.485-11.466,5.198-5.143,5.198-5.143l-2.294-55.893
				L2918.236,3072.092z"/>
			
				<linearGradient id="SVGID_00000161603199282479909050000010752384151567171516_" gradientUnits="userSpaceOnUse" x1="3272.0239" y1="2691.2439" x2="3490.144" y2="2691.2439" gradientTransform="matrix(1 -0.0024 0.0024 1 -794.8005 3.3687)">
				<stop  offset="0" style="stop-color:#444B8C"/>
				<stop  offset="0.9964" style="stop-color:#3E4177"/>
			</linearGradient>
			<path style="fill:url(#SVGID_00000161603199282479909050000010752384151567171516_);" d="M2486.166,2299.999
				c-4.462,121.004-4.34,252.46,2.96,392.876c8.218,158.119,24.321,304.241,44.49,436.688c7.381,0.218,15.135,0.237,23.235-0.009
				c5.47-0.165,10.769-0.445,15.891-0.81c10.235-27.498,22.325-63.656,33.125-106.835c11.353-45.405,18.172-86.123,23.006-125.057
				c17.019-137.084-3.341-148.992,10.495-250.587c12.253-89.978,29.977-93.533,50.487-221.288
				c22.252-138.62,5.389-159.367-2.806-166.857C2652.164,2226.232,2570.455,2248.193,2486.166,2299.999z"/>
			
				<linearGradient id="SVGID_00000072971875284601280330000010104570612491933344_" gradientUnits="userSpaceOnUse" x1="3272.0234" y1="2691.2534" x2="3490.1426" y2="2691.2534" gradientTransform="matrix(1 -0.0024 0.0024 1 -794.8005 3.3687)">
				<stop  offset="0" style="stop-color:#444B8C"/>
				<stop  offset="0.9964" style="stop-color:#3E4177"/>
			</linearGradient>
			<path style="opacity:0.3;fill:url(#SVGID_00000072971875284601280330000010104570612491933344_);" d="M2687.048,2258.119
				c-33.271-30.414-109.151-11.771-189.228,34.961c92.491,99.448,102.703,164.08,91.744,206.059
				c-12.385,47.445-50.352,61.192-50.083,113.038c0.332,63.712,57.875,80.452,56.814,147.876
				c-0.701,44.584-25.97,44.181-31.804,99.26c-6.904,65.169,26.16,87.54,15.584,135.77c-4.55,20.749-17.614,47.878-54.938,75.883
				c2.744,19.789,5.555,39.378,8.483,58.597c7.378,0.216,15.133,0.238,23.233-0.011c5.47-0.164,10.771-0.443,15.889-0.809
				c10.237-27.498,22.327-63.655,33.127-106.834c11.353-45.406,18.172-86.123,23.006-125.058
				c17.018-137.083-3.341-148.992,10.495-250.587c12.253-89.978,29.977-93.535,50.486-221.29
				C2712.105,2286.354,2695.243,2265.607,2687.048,2258.119z"/>
			
				<linearGradient id="SVGID_00000057121438627517911470000005866568922268273333_" gradientUnits="userSpaceOnUse" x1="3332.5784" y1="2669.7427" x2="3771.6792" y2="2669.7427" gradientTransform="matrix(1 -0.0024 0.0024 1 -794.8005 3.3687)">
				<stop  offset="0" style="stop-color:#444B8C"/>
				<stop  offset="0.9964" style="stop-color:#3E4177"/>
			</linearGradient>
			<path style="fill:url(#SVGID_00000057121438627517911470000005866568922268273333_);" d="M2543.304,2297.829
				c79.711,116.034,165.734,260.476,242.77,433.428c58.216,130.701,100.506,253.447,131.601,362.857
				c4.177,1.921,14.028,5.751,26.6,4.059c17.148-2.31,27.402-13.284,30.082-16.346c12.36-78.515,10.817-144.982,6.443-192.945
				c-2.801-30.708-7.75-81.847-27.48-144.946c-22.099-70.678-37.185-74.616-65.974-149.381c-29.88-77.601-22.734-97-51.404-194.135
				c-11.778-39.904-31.476-99.278-63.914-170.281C2695.785,2252.702,2619.544,2275.266,2543.304,2297.829z"/>
			
				<linearGradient id="SVGID_00000006695415063966859440000011951880543209490561_" gradientUnits="userSpaceOnUse" x1="1911.2819" y1="2945.6743" x2="3305.1555" y2="1456.9766">
				<stop  offset="0" style="stop-color:#FFC444"/>
				<stop  offset="0.9964" style="stop-color:#F36F56"/>
			</linearGradient>
			<path style="fill:url(#SVGID_00000006695415063966859440000011951880543209490561_);" d="M2219.502,2134.109
				c0.754,28.234,47.16,53.103,84.524,60.731c87.363,17.831,188.65-45.648,236.724-115.868c9.44-13.788,19.929-30.506,22.457-29.212
				c5.716,2.927-46.805,89.22-69.576,187.365c-11.65,50.209-8.6,73.724-30.38,107.15c-4.934,7.573-11.013,15.456-8.877,24.415
				c5.351,22.435,56.659,28.26,92.25,32.302c37.577,4.266,72.616,3.853,107.256,3.347c55.453-0.809,59.821-3.691,72.479,2.523
				c38.571,18.929,35.957,64.285,64.982,70.333c24.375,5.081,49.101-22.139,56.94-30.769c40.75-44.858,38.573-98.942,45.8-153.493
				c16.802-126.825,85.705-265.775,153.107-353.735c20.442-26.676,34.658-40.709,35.545-65.502
				c2.606-72.779-112.692-153.119-208.689-162.351c-26.312-2.529-73.429-1.733-117.599,2.432
				c-17.654,1.662-36.449,4.111-56.65,7.646c-48.991,8.571-83.097,14.535-117.855,30.438
				c-140.157,64.129-109.571,206.877-261.269,305.576C2268.51,2091.371,2218.711,2104.542,2219.502,2134.109z"/>
			
				<linearGradient id="SVGID_00000080195149048708542850000006718098644684334988_" gradientUnits="userSpaceOnUse" x1="2796.2251" y1="1775.7299" x2="2749.6277" y2="2186.7837">
				<stop  offset="0" style="stop-color:#FFC444"/>
				<stop  offset="0.9964" style="stop-color:#F36F56"/>
			</linearGradient>
			<path style="fill:url(#SVGID_00000080195149048708542850000006718098644684334988_);" d="M2793.77,1635.845
				c0,0,6.02,33.593,19.876,57.508c12.523,21.613,64.3,29.36,75.087,33.122c10.787,3.761-16.274,22.547-45.053,29.358
				c-28.776,6.813-112.955,11.266-129.441,2.206c-16.486-9.059,10.707-11.83,30.509-22.24c19.803-10.411,26.426-52.73,20.294-70.72
				C2758.91,1647.086,2793.77,1635.845,2793.77,1635.845z"/>
			<g>
				
					<linearGradient id="SVGID_00000074423954552192193270000002961795479216511110_" gradientUnits="userSpaceOnUse" x1="4669.105" y1="2445.8372" x2="4594.2661" y2="2255.7593" gradientTransform="matrix(0.9989 0.0475 -0.0475 0.9989 -1725.9976 -907.3022)">
					<stop  offset="0" style="stop-color:#444B8C"/>
					<stop  offset="0.9964" style="stop-color:#3E4177"/>
				</linearGradient>
				<path style="fill:url(#SVGID_00000074423954552192193270000002961795479216511110_);" d="M2739.059,1626.123
					c-20.883-14.925-26.667-55.285-15.068-64.345c3.316-2.589,6.483-1.4,53.612,17.505c23.404,9.39,34.916,14.388,38.707,24.724
					c2.315,6.309,1.941,14.833-0.616,21.549c-1.317,3.456-3.882,7.759-9.587,15.97c-5.063,7.287-4.722,7.04-6.274,9.158
					c-3.729,5.087-10.921,13.652-24.099,23.581c-0.733-3.715-1.891-8.324-3.832-13.351c-0.746-1.934-3.757-9.495-8.531-15.864
					C2755.156,1634.087,2745.836,1630.968,2739.059,1626.123z"/>
				
					<linearGradient id="SVGID_00000099658545689445282070000015643720275921821599_" gradientUnits="userSpaceOnUse" x1="2767.2048" y1="1614.4622" x2="2803.8167" y2="1917.3431">
					<stop  offset="0" style="stop-color:#FFC444"/>
					<stop  offset="0.9964" style="stop-color:#F36F56"/>
				</linearGradient>
				<path style="fill:url(#SVGID_00000099658545689445282070000015643720275921821599_);" d="M2792.579,1664.507
					c0,0-13.664,20.354-38.972,17.593c-22.66-2.474-23.759-53.579-8.77-63.76c5-3.396,14.763-4.469,22.553-1.914
					c4.602,1.509,6.092,3.515,13.657,5.833c6.978,2.14,9.006,1.444,11.058,3.331c2.567,2.359,4.278,7.943-0.825,22.647
					c4.528-4.202,9.807-5.658,13.417-3.756c0.575,0.303,2.09,1.433,2.896,3.08
					C2810.517,1653.522,2804.878,1660.722,2792.579,1664.507z"/>
			</g>
			
				<linearGradient id="SVGID_00000096768943397811953950000015778535352091647398_" gradientUnits="userSpaceOnUse" x1="2233.2288" y1="2091.7019" x2="2586.4824" y2="2091.7019">
				<stop  offset="0" style="stop-color:#FFC444"/>
				<stop  offset="0.9964" style="stop-color:#F36F56"/>
			</linearGradient>
			<path style="opacity:0.3;fill:url(#SVGID_00000096768943397811953950000015778535352091647398_);" d="M2342.049,2129.769
				c63.342-14.266,88.582-13.806,119.906-39.044c52.152-42.02,59.984-105.975,90.291-105.193
				c14.322,0.369,25.957,14.996,34.236,29.318c-7.629,11.949-15.259,23.898-22.889,35.846c-0.031-0.454-0.132-0.806-0.386-0.937
				c-2.528-1.294-13.017,15.424-22.457,29.212c-48.074,70.22-149.361,133.699-236.724,115.868
				c-25.05-5.113-54.1-17.995-70.797-34.426C2276.347,2145.849,2313.173,2136.273,2342.049,2129.769z"/>
			
				<linearGradient id="SVGID_00000048477932676374514630000013841829760078585230_" gradientUnits="userSpaceOnUse" x1="2200.697" y1="2184.3801" x2="2072.6887" y2="2443.9531">
				<stop  offset="0" style="stop-color:#FFC444"/>
				<stop  offset="0.9964" style="stop-color:#F36F56"/>
			</linearGradient>
			<path style="fill:url(#SVGID_00000048477932676374514630000013841829760078585230_);" d="M2238.885,2200.38
				c0,0-35.742-3.555-57.04-12.667c-21.298-9.114-35.056,3.972-33.099,13.031c1.957,9.056,36.996,21.667,50.995,22.119
				C2213.739,2223.316,2238.885,2200.38,2238.885,2200.38z"/>
			
				<linearGradient id="SVGID_00000098180728253815897310000008300846827458254764_" gradientUnits="userSpaceOnUse" x1="2069.1016" y1="3093.4424" x2="3462.9741" y2="1604.7461">
				<stop  offset="0" style="stop-color:#FFC444"/>
				<stop  offset="0.9964" style="stop-color:#F36F56"/>
			</linearGradient>
			<path style="fill:url(#SVGID_00000098180728253815897310000008300846827458254764_);" d="M3008.668,2373.289
				c38.375,3.424,124.755,4.986,185.85-51.536c101.71-94.092,51.253-273.195,15.849-350.221
				c-40.59-88.315-105.195-137.747-144.456-167.789c-48.71-37.271-78.441-60.019-114.209-54.925
				c-92.506,13.174-156.572,202.768-105.79,257.049c16.625,17.77,33.088,7.708,81.201,23.03
				c15.668,4.991,132.61,42.237,152.97,128.367c14.25,60.282-22.031,130.869-86.606,178.277
				C2998.542,2348.122,3003.604,2360.706,3008.668,2373.289z"/>
			
				<linearGradient id="SVGID_00000046316293051256251630000002266013395774561677_" gradientUnits="userSpaceOnUse" x1="2457.8376" y1="2203.7471" x2="3182.5845" y2="2203.7471">
				<stop  offset="0" style="stop-color:#FFC444"/>
				<stop  offset="0.9964" style="stop-color:#F36F56"/>
			</linearGradient>
			<path style="opacity:0.3;fill:url(#SVGID_00000046316293051256251630000002266013395774561677_);" d="M2578.536,2342.059
				c43.444-27.455,49.872-55.281,98.521-74.083c63.2-24.427,93.57,6.601,124.904-18.45c37.289-29.813,4.279-81.753,32.184-171.885
				c4.736-15.299,40.71-131.497,123.254-146.302c38.49-6.904,89.328,7.842,108.918,40.46c15.331,25.526,1.049,44.556,19.689,72.737
				c18.628,28.163,40.906,21.275,64.651,44.763c37.704,37.298,43.484,115.946,9.444,160.424
				c-15.878,20.746-36.51,28.95-75.333,44.387c-23.713,9.428-45.757,15.293-64.741,19.017
				c47.537-45.626,72.207-104.468,60.057-155.865c-12.691-53.689-62.908-88.379-102.734-108.106
				c-39.852,74.998-72.422,161.904-83.268,243.776c-7.228,54.551-5.05,108.635-45.8,153.493c-7.84,8.63-32.566,35.85-56.94,30.769
				c-29.025-6.048-26.411-51.403-64.982-70.333c-12.658-6.213-17.025-3.332-72.479-2.523c-34.641,0.506-69.68,0.919-107.256-3.347
				c-31.651-3.594-75.652-8.631-88.786-25.475C2514.978,2373.962,2553.113,2358.125,2578.536,2342.059z"/>
			<g>
				
					<linearGradient id="SVGID_00000179612993440134303040000000720847042837462206_" gradientUnits="userSpaceOnUse" x1="2090.3623" y1="2256.9736" x2="2990.0308" y2="2256.9736">
					<stop  offset="0" style="stop-color:#444B8C"/>
					<stop  offset="0.9964" style="stop-color:#26264F"/>
				</linearGradient>
				<path style="fill:url(#SVGID_00000179612993440134303040000000720847042837462206_);" d="M2983.473,2403.449l4.471-13.151
					c7.127-20.968-4.591-43.329-26.16-49.899l-845.654-257.602l-25.768,87.339l841.382,259.155
					C2953.201,2435.898,2976.368,2424.349,2983.473,2403.449z"/>
				
					<linearGradient id="SVGID_00000064330764496083672630000005612263273114200735_" gradientUnits="userSpaceOnUse" x1="1260.6216" y1="1972.9886" x2="2188.9133" y2="1972.9886">
					<stop  offset="0" style="stop-color:#444B8C"/>
					<stop  offset="0.9964" style="stop-color:#26264F"/>
				</linearGradient>
				<path style="fill:url(#SVGID_00000064330764496083672630000005612263273114200735_);" d="M1275.792,1846.174
					c64.657-255.436,318.023-409.375,568.593-337.229c255.168,73.469,401.256,349.944,323.728,610.564
					c-75.707,254.5-335.334,391.794-577.601,313.274C1352.432,2355.618,1212.606,2095.801,1275.792,1846.174z M2094.51,2096.962
					c64.075-218.108-58.18-449.118-271.26-511.105c-209.863-61.052-423.075,67.095-478.093,281.566
					c-53.963,210.356,63.875,429.62,264.907,494.211C1814.071,2427.18,2031.699,2310.772,2094.51,2096.962z"/>
				<path style="opacity:0.3;fill:#D8DEE8;" d="M2116.13,2082.797l107.824,32.845c7.398,34.389,21.783,54.092,36.26,66.092
					c54.463,45.148,127.188-4.092,228.65,48.847c50.914,26.566,41.24,43.471,88.963,62.007
					c78.897,30.644,115.013-11.804,184.837,16.088c70.626,28.213,77.588,89.183,117.643,86.995
					c17.135-0.936,39.193-13.401,63.789-60.661l17.687,5.388c21.568,6.571,33.287,28.93,26.16,49.9l-4.471,13.149
					c-7.106,20.9-30.272,32.45-51.729,25.841l-841.382-259.155L2116.13,2082.797z"/>
				
					<linearGradient id="SVGID_00000139272389883800805960000003031557288639229827_" gradientUnits="userSpaceOnUse" x1="-6830.5225" y1="3571.542" x2="-7297.9326" y2="3048.2021" gradientTransform="matrix(-0.8705 0.4922 0.4922 0.8705 -6104.4209 2747.6741)">
					<stop  offset="0" style="stop-color:#444B8C"/>
					<stop  offset="0.9964" style="stop-color:#26264F"/>
				</linearGradient>
				<path style="fill:url(#SVGID_00000139272389883800805960000003031557288639229827_);" d="M1259.412,1868.081
					c64.656-255.437,318.023-409.375,568.594-337.23c255.169,73.47,401.256,349.944,323.729,610.563
					c-75.708,254.5-335.335,391.795-577.602,313.274C1336.053,2377.524,1196.226,2117.708,1259.412,1868.081z M2078.131,2118.868
					c64.075-218.108-58.18-449.118-271.261-511.106c-209.863-61.052-423.074,67.095-478.093,281.566
					c-53.962,210.356,63.876,429.619,264.908,494.21C1797.692,2449.086,2015.319,2332.679,2078.131,2118.868z"/>
				
					<linearGradient id="SVGID_00000172442747135420740560000010599706018478098073_" gradientUnits="userSpaceOnUse" x1="-7517.6191" y1="2807.436" x2="-6883.6953" y2="3505.2852" gradientTransform="matrix(-0.8705 0.4922 0.4922 0.8705 -6104.4209 2747.6741)">
					<stop  offset="0" style="stop-color:#444B8C"/>
					<stop  offset="0.9964" style="stop-color:#26264F"/>
				</linearGradient>
				<path style="fill:url(#SVGID_00000172442747135420740560000010599706018478098073_);" d="M1283.903,1875.583
					c61.279-240.946,300.463-385.714,536.611-317.47c240.229,69.423,377.869,329.765,305.146,575.315
					c-71.113,240.113-315.868,370.068-544.627,296.152C1356.009,2356.871,1223.941,2111.352,1283.903,1875.583z M2078.131,2118.868
					c64.075-218.108-58.18-449.118-271.261-511.106c-209.863-61.052-423.074,67.095-478.093,281.566
					c-53.962,210.356,63.876,429.619,264.908,494.21C1797.692,2449.086,2015.319,2332.679,2078.131,2118.868z"/>
			</g>
			
				<linearGradient id="SVGID_00000068658710074489193960000014961523601962696344_" gradientUnits="userSpaceOnUse" x1="-5557.8032" y1="643.2377" x2="-5540.2173" y2="543.6937" gradientTransform="matrix(-0.8553 -0.5182 -0.5182 0.8553 -1479.6936 -1003.974)">
				<stop  offset="0" style="stop-color:#FFC444"/>
				<stop  offset="0.9964" style="stop-color:#F36F56"/>
			</linearGradient>
			<path style="fill:url(#SVGID_00000068658710074489193960000014961523601962696344_);" d="M3005.409,2365.193l-8.546-21.24
				c0,0-13.952,0.85-25.4-7.359c-6.239-4.474-17.31-5.806-20.528-4.913c-3.217,0.892-15.369,0.36-1.518,6.97
				c13.85,6.607,13.741,11.516,7.968,16.94c-5.773,5.423-27.741,17.09-35.648,17.651c-7.908,0.562,6.389,12.792,14.363,14.355
				c7.975,1.56,21.052,3.535,37.229-5.99C2979.232,2378.132,3005.409,2365.193,3005.409,2365.193z"/>
		</g>
		<g>
			
				<linearGradient id="SVGID_00000000219654736641613330000000732634697808222614_" gradientUnits="userSpaceOnUse" x1="3094.2363" y1="434.3385" x2="2869.448" y2="650.3973">
				<stop  offset="0" style="stop-color:#FFC444"/>
				<stop  offset="0.9964" style="stop-color:#F36F56"/>
			</linearGradient>
			<path style="fill:url(#SVGID_00000000219654736641613330000000732634697808222614_);" d="M2645.714,1444.612
				c-19.83,0.574-39.171-4.424-55.925-14.464c-51.043-30.598-126.465-81.128-194.32-147.273
				c-86.101-83.935-135.571-169.254-146.395-253.035l-0.169-1.313l-2.1-357.49c0-70.651,46.082-128.001,132.599-165.685
				c71.481-31.134,166.222-46.561,266.311-43.664c98.923,2.863,190.46,23.274,258.212,57.284
				c80.538,40.429,122.796,97.245,122.796,164.605l-1.916,341.584l-0.155,1.256c-9.891,80.228-55.407,163.157-135.855,247.017
				c-64.528,67.26-137.444,120.564-187.521,153.591C2684.707,1437.952,2665.499,1444.039,2645.714,1444.612z"/>
			
				<linearGradient id="SVGID_00000051351740898649398020000006505848114578439851_" gradientUnits="userSpaceOnUse" x1="2426.1292" y1="483.5705" x2="3190.239" y2="1733.3224">
				<stop  offset="0" style="stop-color:#FFC444"/>
				<stop  offset="0.9964" style="stop-color:#F36F56"/>
			</linearGradient>
			<path style="fill:url(#SVGID_00000051351740898649398020000006505848114578439851_);" d="M2665.345,1444.612
				c-19.568,0.574-38.654-4.424-55.186-14.464c-50.369-30.598-124.794-81.128-191.752-147.273
				c-84.963-83.935-133.78-169.254-144.46-253.035l-0.168-1.313l-2.073-357.49c0-70.651,45.473-128.001,130.847-165.685
				c70.537-31.134,164.026-46.561,262.792-43.664c97.616,2.863,187.943,23.274,254.8,57.284
				c79.475,40.429,121.174,97.245,121.174,164.605l-1.891,341.584l-0.153,1.256c-9.76,80.228-54.675,163.157-134.061,247.017
				c-63.675,67.26-135.627,120.564-185.043,153.591C2703.823,1437.952,2684.868,1444.039,2665.345,1444.612z"/>
			
				<linearGradient id="SVGID_00000093892786523459546380000014188797352314075810_" gradientUnits="userSpaceOnUse" x1="2831.3069" y1="1195.1295" x2="2210.7388" y2="-52.7051">
				<stop  offset="0" style="stop-color:#FFC444"/>
				<stop  offset="0.9964" style="stop-color:#F36F56"/>
			</linearGradient>
			<path style="fill:url(#SVGID_00000093892786523459546380000014188797352314075810_);" d="M2295.31,671.293l2.086,355.684
				c23.413,181.479,236.692,328.41,329.582,384.234c26.61,15.991,60.631,15.043,87.053-2.343
				c90.951-59.848,292.549-210.515,314.089-385l1.913-340.643C3030.034,430.498,2295.31,407.393,2295.31,671.293z"/>
			
				<linearGradient id="SVGID_00000113320713025412171240000016399612046378263968_" gradientUnits="userSpaceOnUse" x1="2365.7363" y1="953.0516" x2="2964.9277" y2="953.0516">
				<stop  offset="0" style="stop-color:#311944"/>
				<stop  offset="1" style="stop-color:#893976"/>
			</linearGradient>
			<path style="fill:url(#SVGID_00000113320713025412171240000016399612046378263968_);" d="M2670.616,1356.386
				c-1.703,0.04-4.279-0.243-6.883-1.822c-38.247-23.161-112.388-71.674-176.888-135.03
				c-69.67-68.436-109.851-134.972-119.065-197.463l-2.044-349.794c0.085-33.563,26.653-62.287,78.732-85.271
				c58.138-25.659,140.701-39.123,226.149-37.093c84.596,2.008,164.75,19.038,220.28,46.593
				c49.119,24.373,73.952,53.106,74.031,85.508l-1.905,337.683c-8.6,60.472-46.313,125.663-112.528,194.193
				c-62.26,64.434-134.987,115.513-173.001,140.351C2674.893,1355.94,2672.319,1356.346,2670.616,1356.386z"/>
			
				<linearGradient id="SVGID_00000182501667382788290640000001959452273208377764_" gradientUnits="userSpaceOnUse" x1="2761.5667" y1="1411.7832" x2="2588.5647" y2="468.9187">
				<stop  offset="0" style="stop-color:#FF9085"/>
				<stop  offset="1" style="stop-color:#FB6FBB"/>
			</linearGradient>
			<path style="fill:url(#SVGID_00000182501667382788290640000001959452273208377764_);" d="M2661.889,1332.477
				c-38.626-23.789-107.31-69.726-167.235-128.701c-65.473-64.436-103.362-126.269-112.27-183.482l-2.028-347.763
				c0.061-23.997,22.119-46.009,65.394-65.169c55.074-24.386,133.981-37.236,216.137-35.392
				c81.369,1.827,158.064,17.898,210.77,43.976c40.952,20.261,61.669,42.363,61.725,65.767l-1.9,336.442
				c-8.357,55.511-44.095,116.219-106.591,180.78C2767.868,1258.876,2700.339,1307.075,2661.889,1332.477z"/>
			<g>
				<path style="fill:#FFFFFF;" d="M2800.094,877.161l-260.098,2.314c-19.995,0.178-36.285,15.765-36.285,34.804v166.648
					c0,18.927,16.229,33.598,36.152,32.782l259.18-10.613c18.435-0.755,33.385-16.016,33.479-34.1l0.823-159.198
					C2833.44,891.614,2818.593,876.997,2800.094,877.161z"/>
				<path style="fill:#FFFFFF;" d="M2796.441,860.631c-7.811,0.051-14.128-6.155-14.094-13.863l0.158-36.301
					c0.159-36.459-29.982-66.453-67.548-66.826l-84.897-0.842c-38.878-0.387-70.844,29.93-70.877,67.542l-0.033,37.448
					c-0.007,7.951-6.776,14.44-15.138,14.495c-8.38,0.054-15.185-6.372-15.182-14.357l0.015-37.604
					c0.021-53.756,45.801-96.921,101.271-96.151l84.934,1.18c53.358,0.741,95.98,43.446,95.73,95.129l-0.174,36.157
					C2810.57,854.317,2804.234,860.58,2796.441,860.631z"/>
				
					<linearGradient id="SVGID_00000112614507671637071460000016918309659026949771_" gradientUnits="userSpaceOnUse" x1="2638.3494" y1="1003.6544" x2="2705.6345" y2="1003.6544">
					<stop  offset="0" style="stop-color:#311944"/>
					<stop  offset="1" style="stop-color:#893976"/>
				</linearGradient>
				<path style="fill:url(#SVGID_00000112614507671637071460000016918309659026949771_);" d="M2705.635,972.723
					c0.058-18.405-15.739-32.954-35.028-31.735c-17.078,1.078-31.245,14.87-32.203,31.422c-0.743,12.838,6.2,23.96,16.771,29.605
					c4.493,2.401,6.716,7.431,5.829,12.397l-7.517,42.098c-0.957,5.359,3.291,10.073,8.891,9.877l19.028-0.668
					c5.563-0.195,9.795-5.18,8.876-10.447l-7.274-41.698c-0.869-4.979,1.697-9.915,6.208-12.627
					C2699.018,995.05,2705.596,984.554,2705.635,972.723z"/>
			</g>
		</g>
	</g>
</g>
</svg>
