<svg width="535" height="320" viewBox="0 0 535 320" fill="none" xmlns="http://www.w3.org/2000/svg">
<path d="M151.912 116.747C151.912 123.252 152.615 128.527 153.846 132.395C155.253 136.263 157.011 140.483 159.473 145.054C160.352 146.461 160.703 147.868 160.703 149.098C160.703 150.857 159.648 152.615 157.363 154.373L146.286 161.758C144.703 162.813 143.121 163.34 141.714 163.34C139.956 163.34 138.198 162.461 136.44 160.879C133.978 158.241 131.868 155.428 130.11 152.615C128.352 149.626 126.593 146.285 124.659 142.241C110.945 158.417 93.7143 166.505 72.9671 166.505C58.1979 166.505 46.4176 162.285 37.8022 153.846C29.1869 145.406 24.7913 134.153 24.7913 120.087C24.7913 105.142 30.066 93.0105 40.7913 83.8677C51.5165 74.7248 65.7583 70.1534 83.8682 70.1534C89.8462 70.1534 96 70.6808 102.506 71.56C109.011 72.4391 115.692 73.8457 122.725 75.4281V62.5929C122.725 49.2303 119.912 39.9116 114.462 34.4611C108.835 29.0105 99.3407 26.3732 85.8022 26.3732C79.6484 26.3732 73.3187 27.0764 66.8132 28.6589C60.3077 30.2413 53.9781 32.1754 47.8242 34.6369C45.011 35.8677 42.9012 36.571 41.6704 36.9226C40.4396 37.2743 39.5605 37.4501 38.8572 37.4501C36.3957 37.4501 35.1649 35.6918 35.1649 31.9995V23.3841C35.1649 20.571 35.5165 18.4611 36.3957 17.2303C37.2748 15.9995 38.8572 14.7688 41.3187 13.538C47.4726 10.3732 54.8572 7.73579 63.4726 5.6259C72.088 3.34019 81.2308 2.28524 90.9011 2.28524C111.824 2.28524 127.121 7.03249 136.967 16.527C146.637 26.0215 151.56 40.4391 151.56 59.7797V116.747H151.912ZM80.5275 143.472C86.3297 143.472 92.3077 142.417 98.6374 140.307C104.967 138.197 110.593 134.329 115.341 129.054C118.154 125.714 120.264 122.022 121.319 117.802C122.374 113.582 123.077 108.483 123.077 102.505V95.1204C117.978 93.8896 112.528 92.8347 106.901 92.1314C101.275 91.4281 95.8242 91.0764 90.3737 91.0764C78.5935 91.0764 69.9781 93.3622 64.1759 98.1094C58.3737 102.857 55.5605 109.538 55.5605 118.329C55.5605 126.593 57.6704 132.747 62.066 136.967C66.2858 141.362 72.4396 143.472 80.5275 143.472ZM221.714 162.461C218.55 162.461 216.44 161.934 215.033 160.703C213.626 159.648 212.396 157.186 211.341 153.846L170.022 17.9336C168.967 14.4171 168.44 12.1314 168.44 10.9006C168.44 8.08744 169.846 6.50502 172.659 6.50502H189.89C193.231 6.50502 195.517 7.03249 196.747 8.26326C198.154 9.31821 199.209 11.7797 200.264 15.1204L229.802 131.516L257.231 15.1204C258.11 11.6039 259.165 9.31821 260.571 8.26326C261.978 7.20832 264.44 6.50502 267.604 6.50502H281.67C285.011 6.50502 287.297 7.03249 288.703 8.26326C290.11 9.31821 291.341 11.7797 292.044 15.1204L319.824 132.923L350.242 15.1204C351.297 11.6039 352.528 9.31821 353.758 8.26326C355.165 7.20832 357.451 6.50502 360.615 6.50502H376.967C379.78 6.50502 381.363 7.91162 381.363 10.9006C381.363 11.7797 381.187 12.6589 381.011 13.7138C380.835 14.7688 380.484 16.1754 379.78 18.1094L337.407 154.021C336.352 157.538 335.121 159.824 333.714 160.879C332.308 161.934 330.022 162.637 327.033 162.637H311.912C308.571 162.637 306.286 162.109 304.879 160.879C303.473 159.648 302.242 157.362 301.539 153.846L274.286 40.4391L247.209 153.67C246.33 157.186 245.275 159.472 243.868 160.703C242.462 161.934 240 162.461 236.835 162.461H221.714ZM447.648 167.208C438.506 167.208 429.363 166.153 420.571 164.043C411.78 161.934 404.923 159.648 400.352 157.011C397.538 155.428 395.604 153.67 394.901 152.087C394.198 150.505 393.846 148.747 393.846 147.164V138.197C393.846 134.505 395.253 132.747 397.89 132.747C398.945 132.747 400 132.923 401.055 133.274C402.11 133.626 403.692 134.329 405.451 135.032C411.429 137.67 417.934 139.78 424.791 141.186C431.824 142.593 438.681 143.296 445.714 143.296C456.791 143.296 465.407 141.362 471.385 137.494C477.363 133.626 480.527 128 480.527 120.791C480.527 115.868 478.945 111.824 475.78 108.483C472.615 105.142 466.637 102.153 458.022 99.3402L432.528 91.4281C419.692 87.3841 410.198 81.4061 404.396 73.494C398.593 65.7578 395.604 57.1424 395.604 47.9995C395.604 40.6149 397.187 34.1094 400.352 28.483C403.517 22.8567 407.736 17.9336 413.011 14.0655C418.286 10.0215 424.264 7.03249 431.297 4.9226C438.33 2.81271 445.714 1.93359 453.451 1.93359C457.319 1.93359 461.363 2.10942 465.231 2.63689C469.275 3.16436 472.967 3.86766 476.659 4.57096C480.176 5.45008 483.517 6.3292 486.681 7.38414C489.846 8.43909 492.308 9.49403 494.066 10.549C496.528 11.9556 498.286 13.3622 499.341 14.9446C500.396 16.3512 500.923 18.2852 500.923 20.7468V29.0105C500.923 32.7028 499.517 34.6369 496.879 34.6369C495.473 34.6369 493.187 33.9336 490.198 32.527C480.176 27.9556 468.923 25.6699 456.44 25.6699C446.418 25.6699 438.506 27.2523 433.055 30.5929C427.604 33.9336 424.791 39.0325 424.791 46.2413C424.791 51.1644 426.55 55.3841 430.066 58.7248C433.582 62.0655 440.088 65.4061 449.407 68.3951L474.374 76.3072C487.033 80.3512 496.176 85.9775 501.626 93.1863C507.077 100.395 509.714 108.659 509.714 117.802C509.714 125.362 508.132 132.219 505.143 138.197C501.978 144.175 497.758 149.45 492.308 153.67C486.857 158.065 480.352 161.23 472.791 163.516C464.879 165.978 456.615 167.208 447.648 167.208Z" fill="white"/>
<path fill-rule="evenodd" clip-rule="evenodd" d="M480.879 252.659C423.033 295.384 338.989 318.065 266.725 318.065C165.45 318.065 74.1977 280.615 5.27463 218.373C-0.175924 213.45 4.74715 206.769 11.2526 210.637C85.8021 253.889 177.758 280.087 272.879 280.087C337.055 280.087 407.56 266.725 472.44 239.296C482.11 234.9 490.374 245.626 480.879 252.659Z" fill="#FF9900"/>
<path fill-rule="evenodd" clip-rule="evenodd" d="M504.967 225.23C497.582 215.735 456.088 220.659 437.275 222.944C431.648 223.648 430.769 218.724 435.868 215.032C468.923 191.823 523.253 198.505 529.582 206.241C535.912 214.153 527.824 268.483 496.879 294.505C492.132 298.549 487.56 296.439 489.67 291.164C496.703 273.757 512.352 234.549 504.967 225.23Z" fill="#FF9900"/>
</svg>
